<mxfile host="app.diagrams.net" modified="2024-06-28T17:34:38.562Z" agent="Mozilla/5.0 (X11; Linux x86_64) AppleWebKit/537.36 (KHTML, like Gecko) Chrome/125.0.0.0 Safari/537.36" version="24.4.8" etag="WxI8Hc_5SYNsR0NiHwcd" type="github">
  <diagram name="Page-1" id="43o2aBCTZ-WKAKQ6CT5l">
    <mxGraphModel>
      <root>
        <mxCell id="0" />
        <mxCell id="1" parent="0" />
      </root>
    </mxGraphModel>
  </diagram>
</mxfile>
